# xmcd
#
# Track frame offsets: 
#        150
#        9652
#        23422
#        35287
#        54005
#
# Disc length: 892 seconds
#
# Revision: 0
# Processed by: cddbd v1.5.2PL0 Copyright (c) Steve Scherf et al.
# Submitted via: ExactAudioCopyFreeDBPlugin 1.0
#
DISCID=27037a05
DTITLE=Chew Magna - White Hotel EP
DYEAR=2019
DGENRE=Indierock
TTITLE0=Plenary
TTITLE1=Preserve The Servants
TTITLE2=Nailing Jellyfish Against The Wall
TTITLE3=Question Everything
TTITLE4=Going Nowhere
EXTD=
EXTT0=
EXTT1=
EXTT2=
EXTT3=
EXTT4=
PLAYORDER=
